<?xml version="1.0"?>
<svg xmlns="http://www.w3.org/2000/svg" viewBox="0 0 24 24">
    <path style="text-indent:0;text-align:start;line-height:normal;text-transform:none;block-progression:tb;-inkscape-font-specification:Sans" d="M 13.90625 2 C 12.933529 2 12.011341 2.2183614 11.1875 2.59375 C 9.9007961 2.7367171 7.9428201 2.7944247 6.09375 3.5625 C 4.2446799 4.3305753 2.5017727 5.9691212 2 8.8125 L 2 8.84375 C 1.8209848 10.037185 1.99847 11.269288 2.65625 12.28125 C 3.2754663 13.23389 4.3895124 13.923292 5.75 14 C 6.044948 14.867964 6.4442006 15.640365 7 16 C 7.2351471 16.144706 7.5347459 16.239217 7.84375 16.3125 C 8.1698608 17.236955 8.5524137 18.073775 9 18.78125 C 10.289225 20.819058 12.065774 22 13.90625 22 C 16.529114 22 18.864961 19.623949 19.8125 15.65625 C 20.225511 15.485715 20.647161 15.349943 21 15.03125 C 21.529258 14.553211 22 13.866667 22 13 C 22 12.558333 21.99848 12.021698 21.78125 11.46875 C 21.657824 11.154575 21.278928 10.953606 21 10.6875 L 21 10.03125 C 21.000291 10.020788 20.999741 10.01046 21 10 C 21.049113 8.0169638 20.524187 6.0468731 19.34375 4.53125 C 18.157086 3.007632 16.276091 2 13.90625 2 z M 13.90625 4 C 15.736409 4 16.942914 4.673618 17.78125 5.75 C 18.619586 6.826382 19.044619 8.3624558 19 9.96875 L 19 10 L 19 11 L 19 11.65625 L 19.59375 11.90625 C 19.830213 12.011345 19.84848 12.071698 19.90625 12.21875 C 19.96402 12.365802 20 12.641667 20 13 C 20 13.133333 19.90199 13.340539 19.65625 13.5625 C 19.410508 13.784461 19.039841 13.973785 18.78125 14.03125 L 18.15625 14.15625 L 18.03125 14.8125 C 17.287822 18.52964 15.371329 20 13.90625 20 C 12.946726 20 11.723275 19.324692 10.6875 17.6875 C 10.450475 17.312848 10.236684 16.876545 10.03125 16.40625 C 10.856116 16.329502 11.6214 16.171764 12.09375 16 C 13.09375 15.7 14 14.80625 14 12.90625 C 14 10.70625 13.2875 9.6 11.1875 9 C 10.448882 8.8056267 9.7008955 8.6337488 9 8.46875 C 9.2315717 7.4637313 9.6704109 6.5199392 10.28125 5.78125 C 11.196689 4.6742075 12.421065 4 13.90625 4 z M 8.34375 5 C 7.7186433 5.8923607 7.2754702 6.9076 7.03125 8 C 7.0307163 7.9998839 7 8 7 8 C 6 8 5 8.9 5 10 C 5 10 5.0729316 10.825856 5.25 11.875 C 4.8223648 11.751702 4.5234542 11.543295 4.3125 11.21875 C 3.9999742 10.737941 3.8884278 9.9807704 4 9.1875 C 4.0016774 9.1755738 3.998208 9.1681964 4 9.15625 C 4.4032336 6.9257119 5.4502367 6.016344 6.84375 5.4375 C 7.3142878 5.2420458 7.8206966 5.1078598 8.34375 5 z M 11.5 11 C 12.3 11 13 11.7 13 12.5 C 13 13.3 12.3 14 11.5 14 C 10.7 14 10 13.3 10 12.5 C 10 11.7 10.7 11 11.5 11 z M 16.5 11 C 15.671573 11 15 11.671573 15 12.5 C 15 13.328427 15.671573 14 16.5 14 C 17.328427 14 18 13.328427 18 12.5 C 18 11.671573 17.328427 11 16.5 11 z" overflow="visible" font-family="Sans"/>
</svg>
