<?xml version="1.0" encoding="UTF-8" standalone="no"?>
<!DOCTYPE svg PUBLIC "-//W3C//DTD SVG 1.1//EN" "http://www.w3.org/Graphics/SVG/1.1/DTD/svg11.dtd">
<svg width="100%" height="100%" viewBox="0 0 591 591" version="1.1" xmlns="http://www.w3.org/2000/svg" xmlns:xlink="http://www.w3.org/1999/xlink" xml:space="preserve" xmlns:serif="http://www.serif.com/" style="fill-rule:evenodd;clip-rule:evenodd;stroke-linejoin:round;stroke-miterlimit:2;">
    <g transform="matrix(1,0,0,1,-944.882,-578.74)">
        <g transform="matrix(1.18369,0,0,1.44078,-110.019,401.506)">
            <path d="M1390.11,204.989L1390.11,450.919L1290.32,532.896L990.98,532.896L891.198,450.919L891.198,204.989L990.98,123.013L1290.32,123.013L1390.11,204.989Z"/>
            <path d="M1390.11,204.989L1390.11,450.919L1290.32,532.896L990.98,532.896L891.198,450.919L891.198,204.989L990.98,123.013L1290.32,123.013L1390.11,204.989ZM1379.55,208.583L1285.95,131.689L995.354,131.689C995.354,131.689 901.758,208.583 901.758,208.583L901.758,447.326L995.354,524.22L1285.95,524.22L1379.55,447.326L1379.55,208.583Z" style="fill:white;"/>
        </g>
        <g transform="matrix(1,0,0,1,362.474,153.308)">
            <g transform="matrix(600,0,0,600,1049.88,932.508)">
            </g>
            <text x="706.683px" y="932.508px" style="font-family:'SansSerifCollection', 'Sans Serif Collection', sans-serif;font-size:600px;fill:white;">+</text>
        </g>
    </g>
</svg>
